<?xml version="1.0" standalone="no"?>
<!DOCTYPE svg PUBLIC "-//W3C//DTD SVG 20010904//EN"
 "http://www.w3.org/TR/2001/REC-SVG-20010904/DTD/svg10.dtd">
<svg version="1.0" xmlns="http://www.w3.org/2000/svg"
 width="400.000000pt" height="212.000000pt" viewBox="0 0 400.000000 212.000000"
 preserveAspectRatio="xMidYMid meet">

<g transform="translate(0.000000,212.000000) scale(0.100000,-0.100000)"
fill="#000000" stroke="none">
<path d="M1410 2111 c-38 -12 -102 -48 -135 -76 l-30 -25 23 -15 c31 -22 28
-54 -14 -165 -72 -189 -273 -734 -335 -905 -41 -113 -47 -124 -107 -183 -71
-70 -169 -137 -251 -170 -112 -46 -260 -54 -288 -16 -19 26 -17 28 30 54 123
68 295 217 397 345 67 85 174 286 220 416 49 136 53 202 15 243 -45 49 -124
63 -240 42 -251 -44 -432 -195 -570 -475 -60 -121 -90 -210 -110 -325 -33
-196 26 -335 163 -387 84 -31 231 -29 331 5 80 27 209 101 274 156 31 26 39
30 33 15 -4 -11 -17 -44 -28 -74 -14 -37 -29 -58 -50 -70 -93 -50 -241 -157
-281 -201 -103 -114 -98 -255 9 -290 117 -39 296 66 415 242 42 62 117 208
140 272 8 21 23 44 34 51 11 6 57 34 103 61 46 27 107 70 137 96 29 27 56 48
59 48 3 0 6 -14 6 -30 0 -39 33 -104 62 -124 33 -23 122 -21 176 5 24 12 70
46 102 76 l58 54 7 -29 c18 -83 107 -99 224 -40 44 22 95 62 154 119 49 47 85
76 81 65 -3 -12 -9 -39 -11 -62 -4 -33 0 -46 22 -72 23 -28 33 -32 75 -32 59
0 90 11 152 53 49 33 59 47 33 47 -8 0 -18 12 -21 26 -7 26 6 66 96 314 23 63
61 169 84 236 24 66 50 134 57 150 14 29 294 254 317 254 6 0 12 -11 12 -23 0
-19 -98 -301 -155 -447 -58 -148 -155 -428 -155 -447 0 -38 26 -79 60 -93 53
-22 131 0 208 57 33 25 33 25 13 40 -29 20 -26 48 13 155 103 278 167 452 192
526 l29 83 123 95 c133 103 177 132 187 122 5 -5 -86 -254 -284 -777 -28 -74
-51 -143 -51 -154 0 -10 15 -34 34 -53 29 -29 41 -34 80 -34 25 0 65 7 88 17
166 64 403 302 536 541 l41 72 -38 0 c-37 0 -40 -2 -81 -72 -66 -112 -145
-214 -247 -315 -89 -90 -127 -111 -139 -80 -2 7 22 82 54 167 177 463 282 749
282 768 0 55 -48 102 -104 102 -73 0 -182 -67 -348 -214 l-97 -86 20 57 c26
78 24 107 -10 145 -26 29 -35 33 -79 32 -35 0 -63 -9 -98 -29 -64 -37 -268
-197 -318 -249 -23 -24 -36 -33 -32 -21 18 46 36 112 36 132 0 57 -50 103
-112 103 -37 0 -116 -36 -163 -75 l-30 -25 24 -16 c32 -23 29 -35 -77 -324
-49 -135 -102 -281 -118 -324 -31 -88 -102 -187 -193 -269 -62 -55 -85 -61
-75 -19 14 57 87 253 148 397 96 225 176 451 176 496 0 31 -7 47 -29 70 -50
50 -142 35 -233 -38 -34 -28 -35 -30 -17 -41 12 -8 19 -23 19 -45 0 -52 -14
-62 -32 -23 -24 49 -78 107 -115 122 -98 41 -244 -18 -327 -134 -35 -46 -137
-313 -244 -635 l-46 -139 -72 -71 c-59 -60 -191 -154 -200 -144 -2 2 20 63 47
137 28 74 89 239 136 365 47 127 98 264 113 305 202 544 192 513 181 551 -20
66 -86 101 -151 80z m588 -434 c12 -12 34 -51 50 -86 l29 -64 -22 -61 c-102
-279 -267 -572 -372 -660 -39 -33 -88 -35 -103 -5 -16 28 -2 83 67 261 30 78
74 197 98 263 89 248 126 334 152 355 34 26 74 25 101 -3z m-1284 -140 c21
-58 -17 -171 -140 -423 -80 -163 -118 -221 -191 -297 -46 -48 -131 -113 -138
-105 -10 11 32 202 71 318 84 253 199 439 314 512 53 34 71 33 84 -5z m-20
-1209 c-51 -120 -94 -197 -123 -219 -33 -26 -71 -21 -90 12 -32 57 30 147 163
240 38 27 73 49 77 49 5 0 -8 -37 -27 -82z"/>
</g>
</svg>
